<?xml version="1.0" encoding="UTF-8"?>
<svg width="620px" height="410px" viewBox="0 0 620 410" version="1.1" xmlns="http://www.w3.org/2000/svg" xmlns:xlink="http://www.w3.org/1999/xlink">
    <!-- Generator: Sketch 53.2 (72643) - https://sketchapp.com -->
    <title>not-found</title>
    <desc>Created with Sketch.</desc>
    <g id="Page-1" stroke="none" stroke-width="1" fill="none" fill-rule="evenodd">
        <g id="notdsa" transform="translate(0.000000, -45.000000)">
            <g id="not-found" transform="translate(0.000000, 45.000000)">
                <path d="M429.568231,185.278552 L433.423646,183.766257 C433.79296,183.620628 434.156679,183.463798 434.54278,183.312568 C419.846769,177.896382 410.862795,163.009014 412.911987,147.468118 C414.961178,131.927221 427.49632,119.882825 443.09296,118.468716 L440.40704,132.023361 L450.602347,118.625546 L450.691877,118.625546 C469.018106,121.147515 481.833764,138.060224 479.319314,156.404918 C479.235379,157.037842 479.101083,157.653962 478.983574,158.275683 C482.122744,155.794399 485.066065,153.055464 487.270758,149.874044 C491.747292,143.410383 493.263718,135.445628 494.808123,125.694126 C497.868953,106.381557 500.627617,86.8561475 503.112094,67.3419399 C487.351826,62.5823028 477.387035,47.0601562 479.610289,30.7331967 C479.750181,29.7137978 479.946029,28.7224044 480.169856,27.7422131 C480.225812,27.495765 480.281769,27.2493169 480.343321,27.0084699 C480.583935,26.0618852 480.852527,25.1321038 481.165884,24.2079235 C481.216245,24.056694 481.283394,23.9166667 481.333755,23.7710383 C481.613538,23.0036885 481.893321,22.247541 482.25704,21.5306011 C482.380144,21.2505464 482.503249,20.9704918 482.631949,20.7072404 C483.018051,19.9062842 483.426534,19.1221311 483.874188,18.3603825 C484.025271,18.1083333 484.187545,17.8674863 484.338628,17.6154372 C484.68556,17.0553279 485.049278,16.4952186 485.424188,15.9743169 C485.625632,15.6942623 485.82148,15.4142077 486.02852,15.1397541 L486.179603,14.9213115 L486.179603,14.9213115 C495.983457,2.077001 513.551885,-1.928262 527.945668,5.39945355 L524.453971,23.0372951 L534.526173,9.79631148 C545.646156,19.2263165 549.346396,34.7996399 543.658303,48.2310109 L543.697473,48.2310109 C543.602347,48.4550546 543.484838,48.6678962 543.389711,48.8919399 C543.205054,49.3064208 543.014801,49.7153005 542.830144,50.1241803 C542.572744,50.645082 542.270578,51.1547814 542.018773,51.6588798 C541.806137,52.0397541 541.599097,52.4206284 541.369675,52.7790984 C541.039531,53.3392077 540.681408,53.843306 540.323285,54.3642077 C540.11065,54.6666667 539.914801,54.9803279 539.69657,55.2771858 C539.137004,56.0557377 538.510289,56.8006831 537.872383,57.517623 C537.648556,57.7696721 537.407942,57.9993169 537.172924,58.245765 C536.719675,58.727459 536.266426,59.2035519 535.785199,59.6572404 C535.488628,59.9372951 535.175271,60.2173497 534.867509,60.475 C534.425451,60.8670765 533.972202,61.2479508 533.507762,61.5952186 C533.177617,61.8584699 532.841877,62.1105191 532.506137,62.3569672 C532.019314,62.7098361 531.526895,63.0403005 531.028881,63.370765 C530.693141,63.5892077 530.357401,63.8076503 530.016065,64.0148907 C529.456498,64.3565574 528.868953,64.6702186 528.281408,64.9782787 C527.984838,65.1295082 527.721841,65.297541 527.391697,65.4431694 C526.507581,65.8744536 525.601083,66.2721311 524.677798,66.625 C524.504332,66.6922131 524.319675,66.742623 524.146209,66.804235 C523.374007,67.0842896 522.596209,67.3643443 521.80722,67.5603825 C521.465884,67.6556011 521.118953,67.7340164 520.772022,67.8180328 C520.12852,67.9748634 519.479422,68.1204918 518.824729,68.2437158 C518.451685,68.310929 518.065584,68.372541 517.666426,68.4285519 C517.022924,68.5237705 516.373827,68.5965847 515.719134,68.6525956 C515.333032,68.6862022 514.952527,68.7198087 514.56083,68.7422131 C513.855776,68.7758197 513.145126,68.7814208 512.434477,68.7758197 C512.387888,68.7730121 512.341173,68.7730121 512.294585,68.7758197 C511.242599,76.9907559 510.138387,85.2056922 508.981949,93.4206284 C514.466469,86.0091461 522.760648,81.1884518 531.909931,80.0945612 C541.059215,79.0006706 550.254369,81.7303359 557.32852,87.6403005 L548.554513,102.528005 L562.661191,93.2357923 C567.994881,100.301802 570.309271,109.197673 569.096209,117.970219 C568.682203,121.050343 567.834432,124.056245 566.578159,126.898361 C561.067936,139.490653 548.433461,147.43712 534.70839,146.94289 C520.98332,146.448659 508.951953,137.613991 504.359928,124.657923 C504.231227,125.486885 504.108123,126.338251 503.979422,127.156011 C502.614079,135.753689 500.918592,146.457377 494.897653,155.161475 C490.818412,161.07623 485.200361,165.445082 479.738989,169.287432 C476.187605,171.789253 472.554152,174.173452 468.838628,176.440027 C464.938661,180.059937 460.233447,182.698027 455.112455,184.135929 C449.143742,187.194126 443.04633,189.959199 436.820217,192.431148 L432.931227,193.954645 C429.433935,195.321311 425.852708,196.721585 422.299458,198.211475 C422.859025,198.261885 423.418592,198.306694 423.978159,198.379508 C438.425237,200.365305 449.93187,211.473201 452.437726,225.852869 L428.762455,238.796995 L452.364982,237.738388 C451.420092,242.977123 449.228159,247.910872 445.974729,252.121995 C434.876879,266.501825 414.35611,269.417754 399.698556,258.697678 L400.873646,260.887705 C401.65704,262.332787 402.429242,263.772268 403.179061,265.200546 C413.435921,284.658743 414.180144,301.462022 405.277437,312.52418 L398.003069,306.671038 C406.670758,295.905738 399.793682,278.794399 394.925451,269.552596 C394.186823,268.152322 393.425812,266.752049 392.687184,265.318169 C386.101083,253.090984 378.630866,239.23388 381.624549,224.486202 C386.101083,202.249863 410.190433,192.840027 429.568231,185.278552 Z" id="Path" fill="#F2F2F2" fill-rule="nonzero"></path>
                <path d="M150.859206,290.702322 L147.848736,289.520492 C147.557762,289.40847 147.28917,289.279645 146.987004,289.167623 C158.459862,284.932455 165.470934,273.306639 163.870094,261.171944 C162.269255,249.037249 152.483658,239.63159 140.305776,238.522541 L142.404152,249.108607 L134.447112,238.645765 L134.374368,238.645765 C127.496456,239.585924 121.273671,243.223328 117.075784,248.757305 C112.877897,254.291283 111.049008,261.268213 111.991697,268.152322 C112.058845,268.65082 112.165162,269.126913 112.254693,269.614208 C109.785933,267.75624 107.606033,265.542138 105.786101,263.044126 C102.3,258.003142 101.102527,251.774727 99.8938628,244.162842 C97.5268953,229.079098 95.3781588,213.832923 93.4476534,198.609153 C105.751251,194.886131 113.525824,182.762947 111.784657,170.015574 C111.672744,169.220219 111.521661,168.447268 111.342599,167.679918 L111.208303,167.119809 C111.018051,166.380464 110.811011,165.652322 110.564801,164.946585 C110.525632,164.828962 110.475271,164.71694 110.430505,164.604918 C110.212274,164.005601 109.971661,163.417486 109.71426,162.840574 C109.613538,162.627732 109.518412,162.40929 109.41769,162.196448 C109.115523,161.574727 108.79657,160.964208 108.449639,160.370492 C108.33213,160.168852 108.20343,159.978415 108.085921,159.810383 C107.811733,159.373497 107.526354,158.942213 107.235379,158.527732 C107.0787,158.30929 106.927617,158.085246 106.765343,157.872404 L106.647834,157.704372 L106.647834,157.704372 C98.9917873,147.67532 85.2786908,144.538666 74.0306859,150.243716 L76.7613718,164.022404 L68.8882671,153.682787 C60.2050162,161.047896 57.3145193,173.20883 61.7537906,183.699044 L61.7258123,183.699044 C61.798556,183.872678 61.8880866,184.04071 61.966426,184.214344 C62.1119134,184.539208 62.2574007,184.85847 62.4140794,185.177732 C62.6155235,185.581011 62.8281588,185.978689 63.0519856,186.370765 C63.2142599,186.673224 63.3765343,186.970082 63.5555957,187.261339 C63.8129964,187.681421 64.1151625,188.090301 64.3725632,188.49918 C64.5404332,188.734426 64.6915162,188.980874 64.8649819,189.210519 C65.3126354,189.815437 65.7882671,190.397951 66.2862816,190.963661 C66.4597473,191.159699 66.65,191.338934 66.8458484,191.52377 C67.1983755,191.899044 67.5564982,192.268716 67.9314079,192.643989 C68.1608303,192.868033 68.4070397,193.075273 68.6476534,193.282514 C68.9945848,193.592441 69.3471119,193.889299 69.7052347,194.173087 C69.9626354,194.374727 70.2256318,194.570765 70.4886282,194.766803 C70.8691336,195.041257 71.2552347,195.326913 71.6413357,195.556557 C71.9043321,195.730191 72.1673285,195.898224 72.4359206,196.060656 C72.8779783,196.329508 73.3312274,196.570355 73.7900722,196.811202 C74.0250903,196.934426 74.248917,197.063251 74.483935,197.180874 C75.1777978,197.51694 75.882852,197.825 76.6046931,198.099454 C76.7389892,198.155464 76.8844765,198.189071 77.0187726,198.239481 C77.617509,198.457923 78.2274368,198.659563 78.848556,198.833197 C79.1115523,198.906011 79.4081227,198.967623 79.6543321,199.029235 C80.1579422,199.152459 80.6615523,199.270082 81.1763538,199.365301 L82.0772563,199.510929 C82.5808664,199.583743 83.0900722,199.639754 83.599278,199.684563 C83.901444,199.712568 84.1980144,199.734973 84.5057762,199.751776 C85.065343,199.779781 85.6249097,199.785383 86.1844765,199.779781 L86.2907942,199.779781 C87.1114922,206.209836 87.973225,212.63429 88.8759928,219.053142 C84.6003492,213.256451 78.1256206,209.481445 70.9789777,208.618521 C63.8323349,207.755598 56.6465203,209.881158 51.116426,214.493852 L57.9095668,226.054508 L46.8972924,218.801093 C42.7256131,224.317161 40.914059,231.26617 41.8611913,238.119262 C42.1860568,240.527489 42.8511274,242.877294 43.8364621,245.098224 C48.1405638,254.931808 58.0074393,261.13729 68.7260743,260.751816 C79.4447093,260.366342 88.841248,253.46809 92.4292419,243.350683 C92.5299639,243.994809 92.6250903,244.650137 92.7258123,245.299863 C93.7889892,252.021175 95.1151625,260.378005 99.8155235,267.188934 C103.005054,271.804235 107.392058,275.215301 111.655957,278.217486 C114.431408,280.174135 117.268412,282.041166 120.166968,283.818579 C123.214392,286.645327 126.889011,288.707105 130.888267,289.834153 C135.543863,292.220219 140.311372,294.393443 145.179603,296.309016 L148.212455,297.502049 C150.943141,298.566257 153.740975,299.65847 156.499639,300.823497 C156.063177,300.862705 155.621119,300.896311 155.179061,300.957923 C143.90174,302.504622 134.916395,311.170345 132.953069,322.393306 L151.418773,332.475273 L132.986643,331.651913 C134.636049,340.498527 140.705711,347.878842 149.062211,351.19876 C157.418711,354.518678 166.892622,353.313602 174.153971,348.007104 C173.846209,348.567213 173.544043,349.127322 173.236282,349.715437 C172.626354,350.835656 172.022022,351.955874 171.434477,353.076093 C163.427076,368.271858 162.845126,381.40082 169.800542,390.043306 L175.468953,385.472814 C168.698195,377.071175 174.070036,363.701366 177.87509,356.481557 C178.434657,355.389344 179.044585,354.285929 179.643321,353.176913 C184.78574,343.655055 190.616426,332.805738 188.294224,321.28429 C184.819314,303.954508 165.989892,296.628279 150.859206,290.702322 Z" id="Path" fill="#F2F2F2" fill-rule="nonzero"></path>
                <ellipse id="Oval" fill="#3F3D56" fill-rule="nonzero" cx="310" cy="396.378142" rx="310" ry="13.1625683"></ellipse>
                <ellipse id="Oval" fill="#000000" fill-rule="nonzero" opacity="0.1" cx="310" cy="396.378142" rx="310" ry="13.1625683"></ellipse>
                <ellipse id="Oval" fill="#3F3D56" fill-rule="nonzero" cx="310" cy="389.096721" rx="310" ry="13.1625683"></ellipse>
                <path d="M47.5631769,384.414208 C45.8844765,381.328005 47.7870036,377.547268 49.9581227,374.79153 C52.1292419,372.035792 54.7759928,369.190437 54.7200361,365.66735 C54.6416968,360.626366 49.2922383,357.652186 45.0227437,354.980464 C41.8548765,352.996224 38.9323299,350.644264 36.3158845,347.973497 C35.2222496,346.943905 34.3170238,345.730712 33.6411552,344.388798 C32.7570397,342.417213 32.7850181,340.176776 32.8409747,338.014754 C33.027497,330.822951 33.3818893,323.638616 33.9041516,316.461749" id="Path" stroke="#3F3D56" stroke-width="2.23826715"></path>
                <path d="M25.8016245,316.064071 C25.9244131,313.390294 27.401207,310.963892 29.7185921,309.628415 L31.4756318,313.106694 L31.4252708,308.894672 C32.2631828,308.645017 33.1372342,308.538969 34.0104693,308.581011 C38.3274544,308.792347 41.6578151,312.463444 41.4529193,316.784916 C41.2480236,321.106387 37.5852954,324.445275 33.2677185,324.246422 C28.9501415,324.04757 25.6092006,320.386117 25.8016245,316.064071 L25.8016245,316.064071 Z" id="Path" fill="#536DFE" fill-rule="nonzero"></path>
                <path d="M39.8075812,369.274454 C41.4127968,372.472527 44.9776297,374.176854 48.4716003,373.416673 C51.9655709,372.656493 54.5019706,369.624725 54.6361011,366.048224 C54.6919684,364.961871 54.5184622,363.875928 54.1268953,362.861202 C52.974008,359.786268 50.0288472,357.756285 46.7477324,357.775038 C43.4666176,357.793791 40.5448077,359.857306 39.4270758,362.945219 L44.3344765,366.938798 L38.9402527,365.684153 C38.9372272,366.933261 39.234721,368.164735 39.8075812,369.274454 L39.8075812,369.274454 Z" id="Path" fill="#536DFE" fill-rule="nonzero"></path>
                <path d="M43.6853791,354.011475 C47.742399,354.31869 51.3590947,351.466043 52.0095173,347.445863 C52.6599399,343.425682 50.1275692,339.576252 46.1810469,338.586066 L46.2202166,341.829098 L44.4407942,338.306011 L44.4407942,338.306011 C40.1065054,338.103393 36.4287751,341.456181 36.2263538,345.794672 C36.0239325,350.133163 39.3734729,353.814459 43.7077617,354.017077 L43.6853791,354.011475 Z" id="Path" fill="#536DFE" fill-rule="nonzero"></path>
                <path d="M24.6209386,341.313798 C27.419734,341.445869 30.0763185,340.073321 31.5899824,337.713178 C33.1036463,335.353036 33.244428,332.363862 31.9592965,329.871648 C30.674165,327.379435 28.1583622,325.762809 25.3595668,325.630738 C23.8909127,325.557642 22.4317027,325.903375 21.1516245,326.627732 L22.5393502,330.436475 L19.6799639,327.69194 C18.1506423,329.093944 17.2390843,331.045723 17.1451264,333.119399 C17.1072083,333.844186 17.1750701,334.570634 17.3465704,335.27582 C18.1491064,338.690627 21.1198417,341.15644 24.6209386,341.313798 L24.6209386,341.313798 Z" id="Path" fill="#536DFE" fill-rule="nonzero"></path>
                <path d="M26.8592058,318.15888 C28.6722022,318.360519 30.4348375,318.92623 32.2534296,319.038251 C34.0720217,319.150273 36.0696751,318.713388 37.2223827,317.301913 C37.8435018,316.534563 38.1512635,315.571175 38.6716606,314.742213 C39.1700884,313.968079 39.8501431,313.327746 40.6525271,312.877049 C41.9452469,315.58189 41.5838459,318.787829 39.7214721,321.136311 C37.8590983,323.484793 34.821833,324.564623 31.8967544,323.918212 C28.9716759,323.2718 26.6709334,321.012325 25.9694946,318.097268 C26.266065,318.10847 26.5626354,318.130874 26.8592058,318.15888 Z" id="Path" fill="#000000" fill-rule="nonzero" opacity="0.1"></path>
                <path d="M24.6209386,341.313798 C27.3762475,341.453736 30.0019767,340.132649 31.5336367,337.835802 C33.0652968,335.538956 33.2770654,332.604988 32.0911552,330.111612 C31.4677643,330.532938 30.9318856,331.071238 30.5131769,331.696721 C29.9536101,332.542486 29.6122744,333.517077 28.9575812,334.295628 C27.73213,335.735109 25.6449458,336.205601 23.7480144,336.115984 C21.851083,336.026366 20.0212996,335.494262 18.1523466,335.320628 C17.8893502,335.320628 17.6263538,335.27582 17.3633574,335.270219 C18.1620227,338.681473 21.1245542,341.148451 24.6209386,341.313798 L24.6209386,341.313798 Z" id="Path" fill="#000000" fill-rule="nonzero" opacity="0.1"></path>
                <path d="M43.6853791,354.011475 C46.4151661,354.151824 49.020654,352.857814 50.5602579,350.597081 C52.0998618,348.336348 52.3509352,345.435825 51.2227437,342.943716 C50.5702625,343.368461 50.001258,343.909539 49.5440433,344.540027 C48.9341155,345.402596 48.5536101,346.393989 47.865343,347.189344 C46.5447653,348.668033 44.3176895,349.188934 42.3088448,349.138525 C40.3,349.088115 38.4925993,348.617623 36.5564982,348.471995 C37.5248051,351.640727 40.3784798,353.858168 43.6853791,354.011475 L43.6853791,354.011475 Z" id="Path" fill="#000000" fill-rule="nonzero" opacity="0.1"></path>
                <path d="M39.8075812,369.274454 C41.4127968,372.472527 44.9776297,374.176854 48.4716003,373.416673 C51.9655709,372.656493 54.5019706,369.624725 54.6361011,366.048224 C54.6919684,364.961871 54.5184622,363.875928 54.1268953,362.861202 C53.479898,363.28484 52.8991147,363.802011 52.4034296,364.395902 C51.6536101,365.30888 51.166787,366.339481 50.2994585,367.196448 C48.6935018,368.775956 46.1027076,369.436885 43.7972924,369.487295 C42.4644188,369.492691 41.1323314,369.421627 39.8075812,369.274454 Z" id="Path" fill="#000000" fill-rule="nonzero" opacity="0.1"></path>
                <path d="M59.4203971,380.863115 C59.4203971,380.863115 53.2203971,380.672678 51.3570397,379.339617 C49.4936823,378.006557 41.8444043,376.415847 41.3575812,378.555464 C40.8707581,380.695082 32.0407942,389.197541 39.0409747,389.231148 C46.0411552,389.264754 55.3019856,388.110929 57.165343,386.99071 C59.0287004,385.870492 59.4203971,380.863115 59.4203971,380.863115 Z" id="Path" fill="#656380" fill-rule="nonzero"></path>
                <path d="M38.9122744,388.486202 C45.9124549,388.542213 55.1732852,387.365984 57.0422383,386.245765 C58.4579422,385.383197 59.0231047,382.27459 59.2133574,380.84071 L59.4203971,380.84071 C59.4203971,380.84071 59.0287004,385.842486 57.18213,387.001913 C55.3355596,388.161339 46.0523466,389.287158 39.0577617,389.24235 C37.0377256,389.24235 36.3382671,388.508607 36.3774368,387.438798 C36.6404332,388.071721 37.4126354,388.486202 38.9122744,388.486202 Z" id="Path" fill="#000000" fill-rule="nonzero" opacity="0.2"></path>
                <path d="M590.34296,389.455191 C588.66426,386.368989 590.566787,382.588251 592.737906,379.832514 C594.909025,377.076776 597.555776,374.231421 597.499819,370.708333 C597.42148,365.66735 592.072022,362.693169 587.802527,360.021448 C584.63466,358.037208 581.712113,355.685247 579.095668,353.014481 C578.002033,351.984888 577.096807,350.771696 576.420939,349.429781 C575.536823,347.458197 575.564801,345.21776 575.620758,343.055738 C575.80355,335.863934 576.157942,328.679599 576.683935,321.502732" id="Path" stroke="#3F3D56" stroke-width="2.23826715"></path>
                <path d="M568.581408,321.105055 C568.704196,318.431278 570.18099,316.004876 572.498375,314.669399 L574.255415,318.147678 L574.205054,313.935656 C575.042966,313.686001 575.917018,313.579952 576.790253,313.621995 C581.106324,313.836376 584.433809,317.508646 584.226946,321.829258 C584.020084,326.149871 580.357012,329.486797 576.04024,329.287053 C571.723469,329.087309 568.383574,325.426344 568.575812,321.105055 L568.581408,321.105055 Z" id="Path" fill="#536DFE" fill-rule="nonzero"></path>
                <path d="M582.587365,374.315437 C584.19258,377.51351 587.757413,379.217837 591.251384,378.457657 C594.745354,377.697476 597.281754,374.665709 597.415884,371.089208 C597.471752,370.002854 597.298246,368.916912 596.906679,367.902186 C595.753791,364.827251 592.808631,362.797269 589.527516,362.816022 C586.246401,362.834775 583.324591,364.89829 582.206859,367.986202 L587.11426,371.979781 L581.720036,370.725137 C581.717011,371.974245 582.014504,373.205719 582.587365,374.315437 Z" id="Path" fill="#536DFE" fill-rule="nonzero"></path>
                <path d="M586.465162,359.052459 C590.522182,359.359673 594.138878,356.507027 594.789301,352.486846 C595.439723,348.466666 592.907353,344.617235 588.96083,343.627049 L589,346.870082 L587.220578,343.346995 L587.220578,343.346995 C582.886289,343.144377 579.208559,346.497165 579.006137,350.835656 C578.803716,355.174147 582.153256,358.855443 586.487545,359.05806 L586.465162,359.052459 Z" id="Path" fill="#536DFE" fill-rule="nonzero"></path>
                <path d="M567.400722,346.354781 C571.727285,346.558946 575.400004,343.213681 575.603971,338.882923 C575.807938,334.552166 572.465913,330.875886 568.13935,330.671721 C566.670696,330.598626 565.211486,330.944359 563.931408,331.668716 L565.319134,335.477459 L562.459747,332.732923 C560.930426,334.134927 560.018868,336.086707 559.92491,338.160383 C559.886992,338.885169 559.954854,339.611617 560.126354,340.316803 C560.92889,343.73161 563.899625,346.197424 567.400722,346.354781 L567.400722,346.354781 Z" id="Path" fill="#536DFE" fill-rule="nonzero"></path>
                <path d="M569.638989,323.199863 C571.451986,323.401503 573.214621,323.967213 575.033213,324.079235 C576.851805,324.191257 578.849458,323.754372 580.002166,322.342896 C580.623285,321.575546 580.931047,320.612158 581.451444,319.783197 C581.949872,319.009062 582.629926,318.368729 583.43231,317.918033 C584.72503,320.622874 584.363629,323.828813 582.501255,326.177295 C580.638882,328.525776 577.601616,329.605607 574.676538,328.959195 C571.751459,328.312783 569.450717,326.053309 568.749278,323.138251 C569.045848,323.149454 569.342419,323.171858 569.638989,323.199863 Z" id="Path" fill="#000000" fill-rule="nonzero" opacity="0.1"></path>
                <path d="M567.400722,346.354781 C570.156031,346.494719 572.78176,345.173633 574.31342,342.876786 C575.84508,340.57994 576.056849,337.645972 574.870939,335.152596 C574.247548,335.573922 573.711669,336.112222 573.29296,336.737705 C572.733394,337.58347 572.392058,338.55806 571.737365,339.336612 C570.511913,340.776093 568.424729,341.246585 566.527798,341.156967 C564.630866,341.06735 562.801083,340.535246 560.93213,340.361612 C560.669134,340.361612 560.406137,340.316803 560.143141,340.311202 C560.941806,343.722456 563.904338,346.189435 567.400722,346.354781 Z" id="Path" fill="#000000" fill-rule="nonzero" opacity="0.1"></path>
                <path d="M586.465162,359.052459 C589.194949,359.192807 591.800437,357.898797 593.340041,355.638065 C594.879645,353.377332 595.130719,350.476808 594.002527,347.984699 C593.350046,348.409445 592.781041,348.950523 592.323827,349.581011 C591.713899,350.443579 591.333394,351.434973 590.645126,352.230328 C589.324549,353.709016 587.097473,354.229918 585.088628,354.179508 C583.079783,354.129098 581.272383,353.658607 579.336282,353.512978 C580.304589,356.68171 583.158263,358.899152 586.465162,359.052459 Z" id="Path" fill="#000000" fill-rule="nonzero" opacity="0.1"></path>
                <path d="M582.587365,374.315437 C584.19258,377.51351 587.757413,379.217837 591.251384,378.457657 C594.745354,377.697476 597.281754,374.665709 597.415884,371.089208 C597.471752,370.002854 597.298246,368.916912 596.906679,367.902186 C596.259681,368.325823 595.678898,368.842995 595.183213,369.436885 C594.433394,370.349863 593.94657,371.380464 593.079242,372.237432 C591.473285,373.81694 588.882491,374.477869 586.577076,374.528279 C585.244202,374.533674 583.912115,374.462611 582.587365,374.315437 L582.587365,374.315437 Z" id="Path" fill="#000000" fill-rule="nonzero" opacity="0.1"></path>
                <path d="M602.200181,385.904098 C602.200181,385.904098 596.000181,385.713661 594.136823,384.380601 C592.273466,383.047541 584.624188,381.456831 584.137365,383.596448 C583.650542,385.736066 574.820578,394.238525 581.820758,394.272131 C588.820939,394.305738 598.081769,393.151913 599.945126,392.031694 C601.808484,390.911475 602.200181,385.904098 602.200181,385.904098 Z" id="Path" fill="#656380" fill-rule="nonzero"></path>
                <path d="M581.692058,393.527186 C588.692238,393.583197 597.953069,392.406967 599.822022,391.286749 C601.237726,390.42418 601.802888,387.315574 601.993141,385.881694 L602.200181,385.881694 C602.200181,385.881694 601.808484,390.88347 599.961913,392.042896 C598.115343,393.202322 588.83213,394.328142 581.837545,394.283333 C579.817509,394.283333 579.118051,393.54959 579.15722,392.479781 C579.420217,393.112705 580.192419,393.527186 581.692058,393.527186 Z" id="Path" fill="#000000" fill-rule="nonzero" opacity="0.2"></path>
                <path d="M417.196209,185.480191 C413.495608,184.21061 409.765162,183.034381 406.004874,181.951503 C406.624128,179.416075 407.200481,176.867577 407.733935,174.306011 C416.205776,133.132377 410.666065,99.9627049 391.747112,89.0461749 C373.605957,78.5721311 343.937726,89.4942623 313.967329,115.589754 C311.012816,118.173725 308.127316,120.824909 305.31083,123.543306 C303.419495,121.732286 301.498315,119.95674 299.547292,118.216667 C268.15,90.3064208 236.696751,78.5497268 217.772202,89.4998634 C199.647834,100.001913 194.270397,131.183197 201.908484,170.206011 C202.654573,174.070765 203.51071,177.913115 204.476895,181.73306 C200.028339,182.998907 195.725271,184.34877 191.606859,185.788251 C154.79296,198.609153 131.279964,218.773087 131.279964,239.659563 C131.279964,261.229372 156.522022,282.866393 194.869134,295.984153 C197.980325,297.040893 201.113899,298.022951 204.269856,298.930328 C203.247714,303.037796 202.337485,307.178871 201.53917,311.353552 C194.264801,349.698634 199.95,380.146175 218.024007,390.581011 C236.696751,401.368716 268.032491,390.278552 298.540072,363.583743 C300.951805,361.472131 303.369134,359.231694 305.81444,356.890437 C308.865945,359.836612 311.997653,362.696903 315.209567,365.471311 C344.765884,390.928279 373.964079,401.211885 392.015704,390.743443 C410.666065,379.938934 416.726173,347.228552 408.858664,307.438388 C408.261793,304.398862 407.566065,301.297723 406.77148,298.134973 C408.976173,297.485246 411.132371,296.811248 413.240072,296.112978 C453.10361,282.894399 479.045126,261.520628 479.045126,239.659563 C479.045126,218.694672 454.771119,198.424317 417.212996,185.480191 L417.196209,185.480191 Z" id="Path" fill="#53C1DE" fill-rule="nonzero"></path>
                <path d="M408.550903,281.998224 C406.648375,282.631148 404.701083,283.236066 402.709025,283.829781 C397.848693,268.746598 391.965155,254.013198 385.099458,239.732377 C391.703475,225.641977 397.358399,211.12514 402.026354,196.279098 C405.579603,197.309699 409.037726,198.396311 412.361552,199.544536 C444.542238,210.629098 464.171841,227.023497 464.171841,239.659563 C464.171841,253.102186 442.969856,270.583197 408.550903,281.998224 L408.550903,281.998224 Z M394.270758,310.328552 C397.751264,327.921585 398.243682,343.828689 395.949458,356.257514 C393.879061,367.431694 389.715884,374.881148 384.56787,377.86653 C373.605957,384.212568 350.1713,375.962158 324.895668,354.19071 C321.997112,351.692623 319.081769,349.032104 316.149639,346.209153 C326.687374,334.531255 336.42546,322.154571 345.297473,309.163525 C361.145191,307.819532 376.881865,305.386657 392.396209,301.882104 C393.104994,304.749863 393.733574,307.55041 394.281949,310.283743 L394.270758,310.328552 Z M249.835379,376.779918 C239.125271,380.566257 230.597473,380.672678 225.443863,377.698497 C214.476354,371.363661 209.915884,346.892486 216.138267,314.126093 C216.884356,310.253871 217.729302,306.402186 218.673105,302.571038 C234.123298,305.891596 249.780326,308.161493 265.536823,309.365164 C274.66835,322.310885 284.640847,334.641246 295.389711,346.276366 C293.229783,348.371175 291.02136,350.408106 288.76444,352.387158 C275.273285,364.194262 261.748556,372.551093 249.835379,376.779918 L249.835379,376.779918 Z M199.675812,281.914208 C182.715343,276.111475 168.714982,268.572404 159.112816,260.35 C150.489892,252.956557 146.136462,245.613525 146.136462,239.659563 C146.136462,226.98429 165.016245,210.813934 196.497473,199.830191 C200.451745,198.452322 204.441456,197.195811 208.466606,196.060656 C213.142694,211.07089 218.804793,225.755353 225.415884,240.018033 C218.72248,254.485209 212.991228,269.379207 208.259567,284.602732 C205.372202,283.777505 202.510951,282.88133 199.675812,281.914208 Z M216.490794,167.349454 C209.955054,133.91653 214.291697,108.694809 225.21444,102.376776 C236.847834,95.6554645 262.571119,105.244536 289.687726,129.346038 C291.422383,130.886339 293.162635,132.499454 294.902888,134.162978 C284.230846,145.727115 274.336523,157.986789 265.285018,170.861339 C249.677199,172.262355 234.176449,174.674008 218.880144,178.081148 C217.988568,174.526321 217.192118,170.950956 216.490794,167.355055 L216.490794,167.349454 Z M366.516245,204.423087 C363.11781,198.545674 359.594404,192.742942 355.946029,187.014891 C367.042238,188.420765 377.668412,190.280328 387.651083,192.565574 C384.447586,202.737232 380.732927,212.740455 376.5213,222.537022 C373.309386,216.431831 369.974368,210.393852 366.516245,204.423087 Z M305.322022,144.788251 C312.553559,152.680148 319.383333,160.931679 325.785379,169.511475 C312.090915,168.865483 298.390854,168.865483 284.685199,169.511475 C291.43917,160.594536 298.361011,152.304918 305.322022,144.793852 L305.322022,144.788251 Z M243.769675,204.523907 C240.356318,210.449863 237.082852,216.450501 233.949278,222.52582 C229.623827,212.259016 225.92509,202.160246 222.90343,192.408743 C232.824549,190.168306 243.405957,188.370355 254.429422,186.986885 C250.728821,192.752277 247.171841,198.597951 243.758484,204.523907 L243.769675,204.523907 Z M254.74278,293.385246 C243.983161,292.216052 233.290666,290.494247 222.707581,288.226639 C225.779603,278.307104 229.562274,267.989891 233.982852,257.499044 C237.127617,263.581831 240.412274,269.586202 243.836823,275.512158 C247.321059,281.557605 250.952647,287.515301 254.731588,293.385246 L254.74278,293.385246 Z M305.741697,335.578279 C298.691155,327.994399 291.668592,319.59276 284.819495,310.513388 C291.478339,310.778506 298.260289,310.911066 305.165343,310.911066 C312.253189,310.911066 319.249639,310.754235 326.154693,310.440574 C319.780749,319.164043 312.96372,327.554314 305.730505,335.578279 L305.741697,335.578279 Z M376.633213,256.96694 C381.063072,266.962007 384.970399,277.181012 388.33935,287.582514 C377.625239,289.99563 366.792071,291.844663 355.884477,293.121995 C359.558965,287.285656 363.11781,281.380237 366.561011,275.405738 C370.060168,269.334153 373.417569,263.187887 376.633213,256.96694 Z M353.690975,267.978689 C348.423586,277.134608 342.863357,286.115027 337.010289,294.919945 C326.691877,295.65929 316.03213,296.040164 305.165343,296.040164 C294.298556,296.040164 283.81787,295.704098 273.67852,295.043169 C267.676233,286.268124 262.007822,277.274636 256.673285,268.062705 C251.338748,258.850774 246.394043,249.500683 241.83917,240.012432 C246.416426,230.479372 251.346209,221.125546 256.62852,211.950956 L256.62852,211.950956 C261.903369,202.7801 267.523285,193.818352 273.488267,185.06571 C283.834657,184.281557 294.432852,183.872678 305.154152,183.872678 C315.875451,183.872678 326.540794,184.287158 336.875993,185.071311 C342.773827,193.797814 348.369495,202.724089 353.662996,211.850137 C358.956498,220.976184 363.95343,230.287067 368.653791,239.782787 C364.009386,249.349454 359.027377,258.740619 353.707762,267.956284 L353.690975,267.978689 Z M384.338448,101.928689 C395.983032,108.65 400.509928,135.75929 393.19639,171.309426 C392.715162,173.620811 392.1929,175.926594 391.629603,178.226776 C376.31067,174.750578 360.778543,172.293789 345.135199,170.872541 C336.170823,157.98642 326.350642,145.718473 315.741155,134.151776 C318.352467,131.635018 321.01787,129.187341 323.737365,126.808743 C349.410289,104.443579 373.404513,95.6162568 384.338448,101.928689 L384.338448,101.928689 Z" id="Shape" fill="#FFFFFF" fill-rule="nonzero"></path>
                <path d="M305.154152,208.573497 C317.715114,208.573497 329.039242,216.147374 333.846114,227.763441 C338.652986,239.379507 335.995971,252.750178 327.114029,261.640731 C318.232088,270.531283 304.874367,273.190875 293.269552,268.379343 C281.664736,263.56781 274.098195,252.232703 274.098195,239.659563 C274.09671,231.41457 277.368191,223.506844 283.192635,217.676754 C289.017078,211.846664 296.917145,208.572011 305.154152,208.573497" id="Path" fill="#53C1DE" fill-rule="nonzero"></path>
                <path d="M312.943321,11.4262295 C312.943321,16.5612705 308.78458,20.7240437 303.654513,20.7240437 C298.524445,20.7240437 294.365704,16.5612705 294.365704,11.4262295 C294.365704,6.29118851 298.524445,2.1284153 303.654513,2.1284153 C306.12171,2.11642679 308.49132,3.09216487 310.235913,4.83844883 C311.980505,6.58473279 312.955298,8.95664015 312.943321,11.4262295 Z" id="Path" fill="#3F3D56" fill-rule="nonzero"></path>
                <path d="M296.234657,13.7730874 C294.739566,11.0687047 294.682969,7.79787577 296.083599,5.04328901 C297.484229,2.28870224 300.15942,0.409605671 303.223646,0.0280054645 C299.734888,-0.094290099 296.472196,1.75168775 294.777594,4.80664375 C293.082993,7.86159974 293.242643,11.6096535 295.190877,14.5091399 C297.139112,17.4086263 300.546938,18.9699187 304.012635,18.5508197 C300.763258,18.4306946 297.813186,16.6185713 296.234657,13.7730874 L296.234657,13.7730874 Z" id="Path" fill="#3F3D56" fill-rule="nonzero"></path>
                <rect id="Rectangle" fill="#3F3D56" fill-rule="nonzero" x="292.043502" y="24.3759563" width="24.883935" height="38.8547814"></rect>
                <rect id="Rectangle" fill="#000000" fill-rule="nonzero" opacity="0.1" x="292.043502" y="24.3759563" width="24.883935" height="38.8547814"></rect>
                <path d="M252.733935,165.344262 C252.733935,165.344262 250.075993,172.653689 243.780866,173.650683 C237.48574,174.647678 233.826173,176.305601 233.826173,176.305601 L248.755415,185.93388 L256.718051,184.936885 C256.718051,184.936885 257.714079,174.642077 261.03231,172.317623 C264.350542,169.993169 252.733935,165.344262 252.733935,165.344262 Z" id="Path" fill="#A0616A" fill-rule="nonzero"></path>
                <path d="M360.551264,165.344262 C360.551264,165.344262 363.209206,172.653689 369.504332,173.650683 C375.799458,174.647678 379.459025,176.305601 379.459025,176.305601 L364.529783,185.93388 L356.567148,184.936885 C356.567148,184.936885 355.571119,174.642077 352.252888,172.317623 C348.934657,169.993169 360.551264,165.344262 360.551264,165.344262 Z" id="Path" fill="#A0616A" fill-rule="nonzero"></path>
                <path d="M287.897112,100.920492 C287.897112,100.920492 283.918592,102.914481 282.592419,106.902459 C282.592419,106.902459 275.318051,109.226913 271.311552,115.533743 C271.311552,115.533743 266.331408,120.84918 265.671119,123.504098 C265.01083,126.159016 257.400722,142.099727 257.400722,142.099727 C257.400722,142.099727 249.768231,167.007787 245.789711,169.662705 C245.789711,169.662705 258.396751,167.007787 260.718953,179.627049 C260.718953,179.627049 263.701444,179.627049 267.019675,168.004781 C270.337906,156.382514 278.300542,142.099727 278.300542,142.099727 C278.300542,142.099727 280.952888,132.140984 283.27509,130.477459 C285.597292,128.813934 289.245668,121.179645 292.563899,123.196038 C295.88213,125.212432 317.777978,122.859973 317.777978,122.859973 C317.777978,122.859973 330.703971,128.819536 331.02852,132.801913 C331.353069,136.78429 333.680866,137.120355 334.011011,140.441803 C334.341155,143.763251 346.618051,169.993169 346.618051,169.993169 C346.618051,169.993169 348.940253,177.27459 349.606137,178.954918 C349.606137,178.954918 356.880505,161.356284 366.527437,171.320628 C366.527437,171.320628 366.191697,164.677732 363.209206,160.678552 C360.226715,156.679372 347.283935,125.481284 347.283935,125.481284 C347.283935,125.481284 345.957762,120.832377 344.631588,119.504918 C343.305415,118.177459 333.014982,107.546585 329.366606,107.546585 C329.366606,107.546585 327.380144,102.567213 325.057942,101.900683 L287.897112,100.920492 Z" id="Path" fill="#3F3D56" fill-rule="nonzero"></path>
                <path d="M258.038628,182.612432 C252.767895,184.730625 246.773286,183.924757 242.247653,180.489617 C240.085708,178.827705 237.717663,177.453321 235.202708,176.40082 C231.683032,174.978142 227.47509,173.925137 226.193682,176.305601 C223.87148,180.624044 254.390253,191.249317 254.390253,191.249317 C254.390253,191.249317 258.374368,188.924863 258.038628,182.612432 Z" id="Path" fill="#3F3D56" fill-rule="nonzero"></path>
                <path d="M355.24657,182.612432 C360.517304,184.730625 366.511912,183.924757 371.037545,180.489617 C373.19949,178.827705 375.567536,177.453321 378.082491,176.40082 C381.602166,174.978142 385.810108,173.925137 387.091516,176.305601 C389.413718,180.624044 358.894946,191.249317 358.894946,191.249317 C358.894946,191.249317 354.91083,188.924863 355.24657,182.612432 Z" id="Path" fill="#3F3D56" fill-rule="nonzero"></path>
                <path d="M298.741516,46.304235 C298.618412,47.4580601 298.237906,48.7071038 297.253069,49.317623 C296.447292,49.8217213 295.428881,49.7825137 294.5,49.9729508 C292.52208,50.4687002 290.897577,51.8764433 290.124188,53.7648907 C289.379121,55.644217 289.23254,57.7081142 289.704513,59.6740437 C289.924062,60.6368239 290.20822,61.5836895 290.555054,62.5081967 C291.5287,65.2639344 292.703791,67.9972678 294.522383,70.2881148 C296.074192,72.109321 297.819087,73.7563716 299.726354,75.2002732 C300.90704,76.1636612 302.126895,77.1438525 303.581769,77.597541 C304.568123,77.858198 305.583305,77.9936868 306.60343,78.0008197 C307.862455,78.0568306 309.205415,78.0960383 310.29657,77.4687158 C311.975271,76.4997268 312.473285,74.3601093 313.385379,72.6405738 C314.157581,71.1842896 315.310289,69.9464481 316.03213,68.4621585 C316.545013,67.2922729 316.920568,66.066776 317.151264,64.8102459 L318.701264,57.9209016 C319.26083,55.4172131 319.775632,52.5942623 318.371119,50.4490437 C318.269149,50.2744965 318.12723,50.1266806 317.95704,50.0177596 C317.686853,49.9111071 317.3923,49.8820112 317.106498,49.9337432 C315.322436,50.0498312 313.543239,49.6430414 311.986462,48.7631148 C311.742383,48.6367986 311.524115,48.4658145 311.34296,48.2590164 C311.119409,47.9002546 310.985086,47.4930538 310.951264,47.0715847 C310.799967,46.2180362 310.559913,45.3826646 310.235018,44.5790984 C310.143503,44.2894687 309.975263,44.0300881 309.748195,43.8285519 C309.509941,43.6790634 309.239415,43.5888006 308.959206,43.5653005 C306.56373,43.1762619 304.148103,42.9238057 301.724007,42.809153 C300.929422,42.7699454 299.731949,42.4506831 299.183574,43.1564208 C298.635199,43.8621585 298.808664,45.464071 298.741516,46.304235 Z" id="Path" fill="#A0616A" fill-rule="nonzero"></path>
                <path d="M298.741516,46.304235 C298.618412,47.4580601 298.237906,48.7071038 297.253069,49.317623 C296.447292,49.8217213 295.428881,49.7825137 294.5,49.9729508 C292.52208,50.4687002 290.897577,51.8764433 290.124188,53.7648907 C289.379121,55.644217 289.23254,57.7081142 289.704513,59.6740437 C289.924062,60.6368239 290.20822,61.5836895 290.555054,62.5081967 C291.5287,65.2639344 292.703791,67.9972678 294.522383,70.2881148 C296.074192,72.109321 297.819087,73.7563716 299.726354,75.2002732 C300.90704,76.1636612 302.126895,77.1438525 303.581769,77.597541 C304.568123,77.858198 305.583305,77.9936868 306.60343,78.0008197 C307.862455,78.0568306 309.205415,78.0960383 310.29657,77.4687158 C311.975271,76.4997268 312.473285,74.3601093 313.385379,72.6405738 C314.157581,71.1842896 315.310289,69.9464481 316.03213,68.4621585 C316.545013,67.2922729 316.920568,66.066776 317.151264,64.8102459 L318.701264,57.9209016 C319.26083,55.4172131 319.775632,52.5942623 318.371119,50.4490437 C318.269149,50.2744965 318.12723,50.1266806 317.95704,50.0177596 C317.686853,49.9111071 317.3923,49.8820112 317.106498,49.9337432 C315.322436,50.0498312 313.543239,49.6430414 311.986462,48.7631148 C311.742383,48.6367986 311.524115,48.4658145 311.34296,48.2590164 C311.119409,47.9002546 310.985086,47.4930538 310.951264,47.0715847 C310.799967,46.2180362 310.559913,45.3826646 310.235018,44.5790984 C310.143503,44.2894687 309.975263,44.0300881 309.748195,43.8285519 C309.509941,43.6790634 309.239415,43.5888006 308.959206,43.5653005 C306.56373,43.1762619 304.148103,42.9238057 301.724007,42.809153 C300.929422,42.7699454 299.731949,42.4506831 299.183574,43.1564208 C298.635199,43.8621585 298.808664,45.464071 298.741516,46.304235 Z" id="Path" fill="#000000" fill-rule="nonzero" opacity="0.1"></path>
                <path d="M294.248195,50.2642077 C292.952436,49.8768548 291.610484,49.6658528 290.258484,49.6368852 C287.057762,49.5584699 283.633213,50.6618852 281.786643,53.2775956 C280.528638,55.1656465 280.067977,57.4752089 280.505235,59.7020492 C280.950842,61.9080334 281.95247,63.9633618 283.414982,65.6728142 C284.260023,66.5714 285.010091,67.5549419 285.653249,68.6077869 C286.537365,70.2881148 286.565343,72.2989071 286.805957,74.2088798 C287.365523,78.7569672 289.301625,83.0306011 290.068231,87.5506831 C290.834838,92.070765 290.174549,97.3077869 286.610108,100.181148 C286.011372,100.662842 285.283935,101.172541 285.233574,101.939891 C285.155235,103.16653 286.75,103.687432 287.975451,103.805055 C291.640614,104.152322 295.400903,104.493989 298.959747,103.547404 C300.431408,103.155328 301.852708,102.544809 303.352347,102.264754 C307.157401,101.553415 310.984838,103.015301 314.795487,103.715437 C317.553119,104.171142 320.343673,104.397825 323.138628,104.393169 C323.789131,104.451376 324.444454,104.365318 325.057942,104.14112 C325.681651,103.896258 326.075409,103.2756 326.031588,102.606421 C325.907257,102.184178 325.680411,101.79932 325.3713,101.486202 C323.44639,99.1057377 322.858845,95.9411202 322.332852,92.9221311 L320.570217,82.7785519 C319.624549,77.356694 318.746029,71.4643443 321.308845,66.5969945 C323.149819,63.0963115 326.54639,60.6318306 328.488087,57.1871585 C329.164941,56.1460001 329.470572,54.9065004 329.355415,53.6696721 C329.06444,51.9389344 327.503249,50.7010929 325.902888,49.9785519 C322.823617,48.5958729 319.327567,48.4673057 316.155235,49.620082 C316.211191,52.0453552 315.595668,54.4986339 315.198375,56.9015027 L314.5213,60.8222678 C314.176723,63.1328567 313.669994,65.416284 313.004874,67.6556011 C312.763336,68.5514624 312.351015,69.3921209 311.790614,70.1312842 C311.193129,70.7963158 310.463063,71.328655 309.647473,71.6939891 C307.881231,72.5584073 305.939499,73.0031001 303.973466,72.9934426 C303.122087,73.0065344 302.274594,72.8758788 301.466606,72.6069672 C300.165018,72.0357974 298.991042,71.2092177 298.014079,70.1760929 C297.671705,69.883151 297.365505,69.5503299 297.101986,69.1846995 C296.823157,68.7192074 296.6139,68.2153698 296.480866,67.6892077 C296.027749,66.3192339 295.670625,64.9192991 295.412094,63.4995902 C295.244224,62.4129781 295.188267,61.3095628 295.109928,60.2117486 C294.891697,56.9687158 294.891697,53.3840164 294.248195,50.2642077 Z" id="Path" fill="#536DFE" fill-rule="nonzero"></path>
                <path d="M290.885199,114.536749 C290.885199,114.536749 289.559025,132.140984 297.851805,135.126366 C306.144585,138.111749 298.847834,120.513115 298.847834,120.513115 L296.189892,115.203279 L290.885199,114.536749 Z" id="Path" fill="#A0616A" fill-rule="nonzero"></path>
                <path d="M319.081769,114.536749 C319.081769,114.536749 320.407942,132.140984 312.115162,135.126366 C303.822383,138.111749 311.119134,120.513115 311.119134,120.513115 L313.777076,115.203279 L319.081769,114.536749 Z" id="Path" fill="#A0616A" fill-rule="nonzero"></path>
                <path d="M283.582852,55.7812842 L280.930505,60.0997268 C280.930505,60.0997268 283.252708,75.0434426 283.582852,77.6983607 C283.869196,79.614115 284.314663,81.5026276 284.914621,83.3442623 C284.914621,83.3442623 285.244765,91.3146175 285.244765,94.3056011 C285.244765,97.2965847 286.923466,102.275956 286.923466,102.275956 C287.157602,105.098974 287.721001,107.884863 288.602166,110.576776 C289.928339,114.228689 291.254513,118.547131 291.254513,118.547131 C291.254513,118.547131 292.933213,113.898224 299.547292,120.871585 C301.088873,119.305919 301.088873,116.791348 299.547292,115.225683 C299.547292,115.225683 297.56083,106.263934 297.56083,101.609426 C297.56083,96.954918 293.906859,74.7241803 293.906859,74.7241803 C293.906859,74.7241803 291.534296,49.4520492 283.582852,55.7812842 Z" id="Path" fill="#000000" fill-rule="nonzero" opacity="0.1"></path>
                <path d="M282.922563,55.4284153 L280.270217,59.7468579 C280.270217,59.7468579 282.592419,74.6905738 282.922563,77.3454918 C283.209808,79.2615878 283.657166,81.15018 284.259928,82.9913934 C284.259928,82.9913934 284.590072,90.9617486 284.590072,93.9471311 C284.590072,96.9325137 286.268773,101.917486 286.268773,101.917486 C286.501428,104.740714 287.064861,107.526776 287.947473,110.218306 C289.273646,113.87582 290.605415,118.188661 290.605415,118.188661 C290.605415,118.188661 292.284116,113.539754 298.898195,120.513115 C300.436102,118.948124 300.436102,116.437805 298.898195,114.872814 C298.898195,114.872814 296.906137,105.911066 296.906137,101.256557 C296.906137,96.6020492 293.257762,74.3713115 293.257762,74.3713115 C293.257762,74.3713115 290.885199,49.1159836 282.922563,55.4284153 Z" id="Path" fill="#536DFE" fill-rule="nonzero"></path>
                <path d="M326.71426,53.1039617 L328.39296,55.0811475 C328.39296,55.0811475 330.345848,66.384153 326.031588,80.6669399 L324.705415,93.6166667 C324.705415,93.6166667 322.383213,104.578005 322.053069,107.232923 C321.722924,109.887842 321.722924,110.218306 321.05704,111.215301 C320.639489,111.69744 320.639489,112.413489 321.05704,112.895628 L319.064982,120.177049 C319.064982,120.177049 316.082491,116.525137 310.111913,121.174044 C310.111913,121.174044 308.433213,118.519126 309.776173,116.194672 C311.119134,113.870219 311.102347,112.873224 310.772202,112.206694 C310.442058,111.540164 312.098375,108.224317 312.098375,107.557787 C312.098375,106.891257 314.437365,91.6282787 314.437365,91.6282787 C314.437365,91.6282787 315.433394,76.6845628 316.429422,71.7051913 C317.03935,68.6413934 317.028159,61.8136612 316.921841,57.0079235 C316.815523,52.0005464 322.870036,49.2896175 326.434477,52.8071038 C326.518412,52.8967213 326.619134,52.9807377 326.71426,53.1039617 Z" id="Path" fill="#000000" fill-rule="nonzero" opacity="0.1"></path>
                <path d="M327.710289,52.4206284 L329.388989,54.3978142 C329.388989,54.3978142 331.341877,65.7064208 327.027617,79.9836066 L325.701444,92.9333333 C325.701444,92.9333333 323.379242,103.894672 323.049097,106.54959 C322.718953,109.204508 322.713357,109.540574 322.053069,110.537568 C321.633088,111.018798 321.633088,111.736667 322.053069,112.217896 L320.072202,119.521721 C320.072202,119.521721 317.089711,115.864208 311.119134,120.513115 C311.119134,120.513115 309.440433,117.858197 310.788989,115.533743 C312.137545,113.20929 312.115162,112.212295 311.785018,111.551366 C311.454874,110.890437 313.111191,107.563388 313.111191,106.902459 C313.111191,106.24153 315.433394,90.9617486 315.433394,90.9617486 C315.433394,90.9617486 316.429422,76.0180328 317.425451,71.0330601 C318.42148,66.0480874 317.755596,51.1099727 317.755596,51.1099727 C317.755596,51.1099727 323.065884,47.4580601 327.710289,52.4206284 Z" id="Path" fill="#536DFE" fill-rule="nonzero"></path>
                <ellipse id="Oval" fill="#A0616A" fill-rule="nonzero" cx="305.4787" cy="34.5083333" rx="13.2729242" ry="13.2857923"></ellipse>
                <path d="M312.400542,14.5628415 C311.093934,18.2134125 307.661082,20.668941 303.787442,20.7238156 C299.913802,20.7786903 296.412903,18.4213866 295.00361,14.8092896 C300.185199,12.720082 305.4787,14.5796448 305.4787,14.5796448 C308.125451,13.6498634 310.419675,13.7338798 312.400542,14.5628415 Z" id="Path" fill="#000000" fill-rule="nonzero" opacity="0.1"></path>
                <path d="M305.4787,15.2461749 C305.4787,15.2461749 279.934477,6.28442623 286.240794,49.7825137 C286.240794,49.7825137 291.881227,53.4344262 296.189892,51.1099727 C296.189892,51.1099727 293.207401,20.8920765 304.818412,22.2195355 C316.429422,23.5469945 314.437365,50.4490437 314.437365,50.4490437 C314.437365,50.4490437 321.073827,52.4374317 323.065884,48.7687158 C325.057942,45.1 322.4,9.29221311 305.4787,15.2461749 Z" id="Path" fill="#3F3D56" fill-rule="nonzero"></path>
                <path d="M304.818412,20.2255464 C296.850181,19.3181694 295.75343,33.2592896 295.865343,42.0978142 C295.960469,33.3096995 297.437726,21.3737705 304.818412,22.2195355 C313.105596,23.1661202 314.465343,37.1520492 314.560469,45.0719945 C314.655596,37.801776 313.861011,21.2617486 304.818412,20.2255464 Z" id="Path" fill="#000000" fill-rule="nonzero" opacity="0.1"></path>
                <path d="M286.240794,47.7885246 C285.663192,43.9809081 285.332356,40.1398677 285.250361,36.2894809 C285.222675,40.8063268 285.553863,45.3182247 286.240794,49.7825137 C286.240794,49.7825137 291.881227,53.4344262 296.189892,51.1099727 C296.189892,51.1099727 296.122744,50.3930328 296.044404,49.1887978 C291.752527,51.3564208 286.240794,47.7885246 286.240794,47.7885246 Z" id="Path" fill="#000000" fill-rule="nonzero" opacity="0.1"></path>
                <path d="M323.065884,46.8195355 C321.208123,50.225 315.327076,48.7295082 314.532491,48.4998634 C314.493321,49.7321038 314.437365,50.4714481 314.437365,50.4714481 C314.437365,50.4714481 321.073827,52.4598361 323.065884,48.7911202 C323.474368,48.0405738 323.687004,45.9177596 323.625451,43.0780055 C323.569495,44.8983607 323.373646,46.2594262 323.065884,46.8195355 Z" id="Path" fill="#000000" fill-rule="nonzero" opacity="0.1"></path>
                <path d="M462.61065,376.931148 C465.262996,372.013388 462.252527,365.986612 458.794404,361.600956 C455.336282,357.215301 451.111552,352.639208 451.201083,347.038115 C451.329783,339.000546 459.84639,334.262022 466.656318,329.99959 C471.704215,326.839745 476.360524,323.092661 480.527978,318.836612 C482.206679,317.128279 483.812635,315.302322 484.791877,313.117896 C486.201986,309.981284 486.162816,306.396585 486.073285,302.968716 C485.77858,291.501412 485.219013,280.049044 484.394585,268.611612" id="Path" stroke="#3F3D56" stroke-width="2.23826715"></path>
                <path d="M497.309386,268.006694 C497.114971,263.743278 494.760219,259.874024 491.064621,257.745492 L488.266787,263.290574 L488.350722,256.569262 C483.128429,255.02288 477.506516,257.033761 474.445971,261.542801 C471.385426,266.051841 471.588632,272.024235 474.948562,276.314401 C478.308491,280.604567 484.054056,282.22793 489.159142,280.329486 C494.264228,278.431041 497.557239,273.446475 497.303791,268.001093 L497.309386,268.006694 Z" id="Path" fill="#536DFE" fill-rule="nonzero"></path>
                <path d="M474.993863,352.801639 C472.288128,358.068418 466.26665,360.718147 460.560388,359.153036 C454.854127,357.587926 451.023127,352.235864 451.377486,346.324152 C451.731845,340.41244 456.174685,335.557289 462.026967,334.686364 C467.879249,333.815439 473.541008,337.166842 475.598195,342.719672 L467.76426,349.088115 L476.364801,347.088525 C476.369251,349.075049 475.899209,351.033857 474.993863,352.801639 L474.993863,352.801639 Z" id="Path" fill="#536DFE" fill-rule="nonzero"></path>
                <path d="M468.81065,328.476093 C462.472709,328.744955 456.935847,324.225564 455.923536,317.957155 C454.911225,311.688747 458.743551,305.653352 464.843321,303.909699 L464.776173,309.073907 L467.607581,303.472814 L467.641155,303.472814 C472.128135,303.230407 476.400664,305.413984 478.835814,309.194109 C481.270964,312.974234 481.495068,317.770858 479.423001,321.761975 C477.350934,325.753092 473.300647,328.326276 468.81065,328.504098 L468.81065,328.476093 Z" id="Path" fill="#536DFE" fill-rule="nonzero"></path>
                <path d="M499.195126,308.239344 C493.886572,308.488144 488.999722,305.354562 487.006216,300.423482 C485.012711,295.492403 486.347149,289.838839 490.334608,286.322215 C494.322066,282.80559 500.093248,282.192556 504.729242,284.793169 L502.490975,290.859153 L507.040253,286.490301 C510.76452,289.909971 512.069026,295.235908 510.347303,299.992077 C508.625581,304.748246 504.215435,308.001479 499.167148,308.239344 L499.195126,308.239344 Z" id="Path" fill="#536DFE" fill-rule="nonzero"></path>
                <path d="M495.630686,271.344945 C492.737726,271.664208 489.9287,272.565984 487.030144,272.745219 C484.131588,272.924454 480.947653,272.229918 479.11787,269.944672 C478.127437,268.729235 477.635018,267.194536 476.801264,265.867077 C476.009397,264.634624 474.927692,263.615335 473.650903,262.898497 C471.447371,267.234873 471.950806,272.456039 474.942189,276.29054 C477.933571,280.125041 482.872064,281.879604 487.609188,280.790911 C492.346312,279.702218 496.025601,275.967104 497.04639,271.210519 C496.570758,271.260929 496.100722,271.294536 495.630686,271.344945 Z" id="Path" fill="#000000" fill-rule="nonzero" opacity="0.1"></path>
                <path d="M499.195126,308.239344 C494.807345,308.440773 490.634622,306.327467 488.197632,302.669585 C485.760642,299.011702 485.415332,294.343513 487.287545,290.366257 C488.284071,291.035093 489.139621,291.893375 489.805596,292.89235 C490.695307,294.236612 491.238087,295.793716 492.284477,297.031557 C494.231769,299.322404 497.566787,300.072951 500.588448,299.938525 C503.610108,299.804098 506.519856,298.94153 509.541516,298.661475 C509.961191,298.627869 510.380866,298.599863 510.806137,298.588661 C509.526164,304.041905 504.785529,307.982162 499.195126,308.239344 L499.195126,308.239344 Z" id="Path" fill="#000000" fill-rule="nonzero" opacity="0.1"></path>
                <path d="M468.81065,328.476093 C464.467807,328.679266 460.330675,326.612305 457.882335,323.016175 C455.433996,319.420044 455.025145,314.809847 456.802347,310.838251 C457.83454,311.516497 458.731991,312.380633 459.449097,313.386749 C460.422744,314.759016 461.027076,316.338525 462.168592,317.609973 C464.278159,319.962432 467.825812,320.791393 471.026534,320.712978 C474.126534,320.645765 477.109025,319.884016 480.192238,319.64877 C478.639285,324.700379 474.08528,328.232371 468.81065,328.476093 L468.81065,328.476093 Z" id="Path" fill="#000000" fill-rule="nonzero" opacity="0.1"></path>
                <path d="M474.993863,352.801639 C471.980604,358.782643 464.800583,361.333481 458.69459,358.592263 C452.588597,355.851045 449.716522,348.787429 452.174729,342.55724 C453.206855,343.23432 454.132782,344.061101 454.922202,345.010519 C456.114079,346.461202 456.897473,348.107923 458.279603,349.457787 C460.836823,351.972678 464.966426,353.00888 468.64278,353.104098 C470.763891,353.127461 472.884549,353.026468 474.993863,352.801639 L474.993863,352.801639 Z" id="Path" fill="#000000" fill-rule="nonzero" opacity="0.1"></path>
                <path d="M443.736462,371.268443 C443.736462,371.268443 453.612816,370.965984 456.606498,368.843169 C459.600181,366.720355 471.804332,364.188661 472.54296,367.588525 C473.281588,370.988388 487.388267,384.515027 476.236101,384.604645 C465.083935,384.694262 450.322563,382.868306 447.351264,381.053552 C444.379964,379.238798 443.736462,371.268443 443.736462,371.268443 Z" id="Path" fill="#656380" fill-rule="nonzero"></path>
                <path d="M476.415162,383.445219 C465.262996,383.534836 450.501625,381.703279 447.530325,379.894126 C445.292058,378.510656 444.368773,373.564891 444.066606,371.279645 L443.736462,371.279645 C443.736462,371.279645 444.363177,379.255601 447.334477,381.064754 C450.305776,382.873907 465.067148,384.705464 476.219314,384.615847 C479.436823,384.615847 480.550361,383.445219 480.488809,381.748087 C480.041155,382.761885 478.815704,383.40041 476.415162,383.445219 Z" id="Path" fill="#000000" fill-rule="nonzero" opacity="0.2"></path>
                <path d="M180.740072,24.0062842 L170.527978,30.4867486 L176.727978,19.2005464 C174.978474,17.8002873 172.812564,17.0237458 170.572744,16.9937158 L170.404874,16.9937158 C169.696589,17.0036388 168.988805,16.9511595 168.289711,16.8368852 L164.825993,19.0325137 L166.308845,16.3327869 C163.857746,15.475468 161.739125,13.8663423 160.254332,11.7342896 L154.059928,15.6550546 L157.976895,8.53046448 C154.350903,4.1784153 149.47148,1.50669399 144.094043,1.50669399 C137.65343,1.50669399 131.91787,5.34344262 128.213538,11.3198087 C125.9834,14.9571967 121.977647,17.1201775 117.716065,16.9881148 L117.369134,16.9881148 C110.25704,16.9881148 104.499097,25.0592896 104.499097,35.0180328 C104.499097,44.976776 110.262635,53.0423497 117.369134,53.0423497 C118.929984,53.0378096 120.466313,52.653355 121.845668,51.9221311 C126.484477,49.5080601 132.572563,49.4632514 137.429603,51.6196721 C141.641256,53.5158567 146.460529,53.5260424 150.680144,51.6476776 C155.50361,49.5360656 161.518953,49.5808743 166.129783,51.9501366 C167.497652,52.6746007 169.019645,53.0588298 170.567148,53.0703552 C177.679242,53.0703552 183.437184,44.9991803 183.437184,35.0460383 C183.479794,31.1976582 182.552155,27.4006669 180.740072,24.0062842 Z" id="Path" fill="#F2F2F2" fill-rule="nonzero"></path>
                <path d="M161.485379,50.3818306 C157.769899,49.6746341 153.928155,50.0919416 150.450722,51.5804645 C146.232703,53.4571592 141.415837,53.4469743 137.205776,51.552459 C132.343141,49.3960383 126.255054,49.440847 121.616245,51.854918 C120.23689,52.5861419 118.700561,52.9705965 117.139711,52.9751366 C110.822202,52.9751366 105.56787,46.6010929 104.471119,38.1994536 C105.733167,37.2792108 106.80494,36.1227044 107.627076,34.7939891 C111.353791,28.823224 117.066968,24.9752732 123.507581,24.9752732 C129.948195,24.9752732 135.616606,28.7672131 139.320939,34.6763661 C141.56924,38.3076278 145.550718,40.4978646 149.818412,40.4510929 L149.963899,40.4510929 C155,40.456694 159.364621,44.495082 161.485379,50.3818306 Z" id="Path" fill="#000000" fill-rule="nonzero" opacity="0.03"></path>
                <path d="M447.692599,37.202459 L442.617329,40.4342896 L445.711733,34.8331967 C444.837678,34.1258563 443.752348,33.7315252 442.62852,33.7129781 L442.550181,33.7129781 C442.196038,33.7179396 441.842146,33.6917 441.492599,33.6345628 L439.763538,34.7547814 L440.490975,33.3769126 C439.268084,32.9504745 438.21071,32.1488346 437.469314,31.0860656 L434.380505,33.0464481 L436.333394,29.4953552 C434.669082,27.3455945 432.12774,26.0582684 429.411552,25.989071 C426.194043,25.989071 423.334657,27.9046448 421.488087,30.8844262 C420.3708,32.6910863 418.371964,33.7598758 416.250542,33.6849727 L416.077076,33.6849727 C412.529422,33.6849727 409.653249,37.7121585 409.653249,42.6467213 C409.653249,47.5812842 412.529422,51.6364754 416.077076,51.6364754 C416.857445,51.633758 417.625504,51.4415571 418.315343,51.0763661 C420.758744,49.8880091 423.600033,49.8327253 426.087726,50.9251366 C428.191059,51.8623538 430.592876,51.8623538 432.696209,50.9251366 C435.165033,49.8548556 437.976433,49.9100345 440.401444,51.0763661 C441.091202,51.4417673 441.859314,51.6339814 442.639711,51.6364754 C446.187365,51.6364754 449.063538,47.6148907 449.063538,42.6467213 C449.068882,40.7457292 448.597503,38.8737939 447.692599,37.202459 Z" id="Path" fill="#F2F2F2" fill-rule="nonzero"></path>
                <path d="M438.096029,50.3594262 C436.243691,50.0092462 434.329175,50.2178442 432.595487,50.9587432 C430.492154,51.8959603 428.090337,51.8959603 425.987004,50.9587432 C423.497413,49.8661263 420.654348,49.9214048 418.209025,51.1099727 C417.519754,51.4766458 416.751323,51.6689399 415.970758,51.670082 C412.814801,51.670082 410.196029,48.4942623 409.647653,44.3046448 C410.275243,43.8496554 410.810735,43.2794308 411.225632,42.6243169 C413.072202,39.6445355 415.937184,37.7345628 419.149097,37.7345628 C422.361011,37.7345628 425.186823,39.6221311 427.033394,42.568306 C428.153979,44.3810148 430.141484,45.4735018 432.270939,45.4472678 L432.354874,45.4472678 C434.867329,45.4080601 437.021661,47.4244536 438.096029,50.3594262 Z" id="Path" fill="#000000" fill-rule="nonzero" opacity="0.03"></path>
                <path d="M114.341877,120.905191 L122.545126,126.103005 L117.576173,117.05724 C118.985147,115.934604 120.727605,115.313805 122.528339,115.292896 L122.65704,115.292896 C123.219138,115.301319 123.780883,115.260085 124.33574,115.169672 L127.105596,116.928415 L125.902527,114.766393 C127.864807,114.075729 129.561476,112.786812 130.753971,111.080874 L135.717329,114.228689 L132.617329,108.521175 C135.52148,105.037295 139.432852,102.920082 143.735921,102.920082 C148.900722,102.920082 153.494765,105.989481 156.466065,110.761612 C158.248081,113.672409 161.450513,115.405536 164.859567,115.304098 L165.13935,115.304098 C170.83574,115.304098 175.452166,121.76776 175.452166,129.743716 C175.452166,137.719672 170.83574,144.188934 165.13935,144.188934 C163.884799,144.18406 162.650155,143.874619 161.541336,143.287158 C157.616617,141.378444 153.052682,141.290394 149.057401,143.046311 C145.67475,144.559777 141.808283,144.559777 138.425632,143.046311 C134.459949,141.326816 129.94394,141.414689 126.048014,143.287158 C124.950347,143.859038 123.732203,144.160509 122.494765,144.16653 C116.79278,144.16653 112.176354,137.702869 112.176354,129.721311 C112.149519,126.647485 112.894123,123.616109 114.341877,120.905191 L114.341877,120.905191 Z" id="Path" fill="#F2F2F2" fill-rule="nonzero"></path>
                <path d="M129.757942,142.038115 C132.735306,141.476498 135.812202,141.811776 138.599097,143.001503 C141.981748,144.514968 145.848216,144.514968 149.230866,143.001503 C153.228046,141.24538 157.793757,141.333425 161.720397,143.24235 C162.82722,143.829772 164.060047,144.139239 165.312816,144.144126 C170.376895,144.144126 174.584838,139.04153 175.463357,132.309016 C174.452895,131.568766 173.594199,130.64078 172.934116,129.575683 C169.962816,124.79235 165.368773,121.734153 160.203971,121.734153 C155.03917,121.734153 150.506679,124.769945 147.535379,129.50847 C145.737212,132.411871 142.554445,134.164089 139.141877,134.129372 L139.013177,134.129372 C134.950722,134.090164 131.459025,137.327596 129.757942,142.038115 Z" id="Path" fill="#000000" fill-rule="nonzero" opacity="0.03"></path>
            </g>
        </g>
    </g>
</svg>